# xmcd
#
# Track frame offsets:
#	150
#	15354
#	26437
#	37761
#	47554
#	60566
#	72456
#	80609
#	94484
#	105896
#	117823
#	127811
#
# Disc length: 1882 seconds
#
# Revision: 0
# Processed by: cddbd v1.5.1PL0 Copyright (c) Steve Scherf et al.
# Submitted via: dBpowerAMP V4.0
#
DISCID=8807580c
DTITLE=Cornelio Reyna - Para mi pueblo con mariachi y acordeon
DYEAR=1900
DGENRE=
TTITLE0=Tu traicion
TTITLE1=Si tu supieras
TTITLE2=Te vas angel mio
TTITLE3=Prizionero de tu amor
TTITLE4=Te quiero mas
TTITLE5=Me persigue tu sombra
TTITLE6=Hay hojitos
TTITLE7=barrio pobre
TTITLE8=Con botellita
TTITLE9=Pancha la contrabandista
TTITLE10=La cruda
TTITLE11=Hay un mar
EXTD=
EXTT0=
EXTT1=
EXTT2=
EXTT3=
EXTT4=
EXTT5=
EXTT6=
EXTT7=
EXTT8=
EXTT9=
EXTT10=
EXTT11=
PLAYORDER=
